<?xml version="1.0" standalone="no"?><!DOCTYPE svg PUBLIC "-//W3C//DTD SVG 1.1//EN" "http://www.w3.org/Graphics/SVG/1.1/DTD/svg11.dtd"><svg class="icon" width="200px" height="200.00px" viewBox="0 0 1024 1024" version="1.1" xmlns="http://www.w3.org/2000/svg"><path fill="#bfbfbf" d="M503 344m-40 0a20 20 0 1 0 80 0 20 20 0 1 0-80 0ZM544 688 544 432 448 432 448 448 480 448 480 688 448 688 448 704 576 704 576 688ZM512 96C282.2 96 96 282.2 96 512c0 229.8 186.2 416 416 416 229.8 0 416-186.2 416-416C928 282.2 741.8 96 512 96zM512 893.4c-210.2 0-381.4-171-381.4-381.4 0-210.2 171-381.4 381.4-381.4 210.2 0 381.4 171 381.4 381.4C893.4 722.2 722.2 893.4 512 893.4z" /></svg>