<?xml version="1.0" standalone="no"?><!DOCTYPE svg PUBLIC "-//W3C//DTD SVG 1.1//EN" "http://www.w3.org/Graphics/SVG/1.1/DTD/svg11.dtd"><svg t="1502682056023" class="icon" style="" viewBox="0 0 1024 1024" version="1.1" xmlns="http://www.w3.org/2000/svg" p-id="4017" xmlns:xlink="http://www.w3.org/1999/xlink" width="32" height="32"><defs><style type="text/css"></style></defs><path d="M536.655454 1011.078412c193.066133-271.209999 280.445555-435.709389 290.377363-454.774362l0.122867 0.061433a367.046815 367.046815 0 0 0 52.259734-188.970542 365.121888 365.121888 0 0 0-107.611638-259.80378c-69.39978-69.39978-161.652955-107.611639-259.80378-107.611639s-190.404 38.211859-259.80378 107.611639-107.611639 161.652955-107.611638 259.80378c0 66.717168 18.061554 132.062314 52.259734 188.970542l0.020478-0.020478c11.549565 24.450675 92.048395 188.683852 290.848355 455.286312 0.737206 0.982942 1.535846 1.965883 2.39592 2.866913l0.307169 0.307169a15.460854 15.460854 0 0 0 0.819118 0.819119l0.593861 0.532426 0.532427 0.491471 0.79864 0.655295a25.740786 25.740786 0 0 0 3.255994 2.252574l0.245736 0.143346c1.269633 0.757684 2.559744 1.392501 3.890811 1.945405 0.225257 0.10239 0.450515 0.163824 0.69625 0.245736 0.409559 0.163824 0.79864 0.327647 1.208199 0.450515l0.860074 0.266213 1.228677 0.327647a14.396 14.396 0 0 0 1.351545 0.30717c0.409559 0.081912 0.79864 0.184302 1.208199 0.245735l0.921508 0.122868 1.167244 0.143346 0.819118 0.061433c0.593861 0.020478 1.208199 0.061434 1.822537 0.061434h0.327648c0.634817 0 1.269633-0.040956 1.883971-0.061434l0.839596-0.081911 1.228677-0.122868 0.941986-0.122868a39.338146 39.338146 0 0 0 2.70309-0.614338l1.167243-0.327648 0.921508-0.307169 1.228677-0.450515 0.737206-0.286691 1.924928-0.880552 0.286691-0.163824a18.266333 18.266333 0 0 0 1.740626-1.003419l0.327647-0.20478a32.150385 32.150385 0 0 0 2.887392-2.068273l0.307169-0.266213 0.757684-0.634817 0.593861-0.552905 0.532427-0.511948a16.239016 16.239016 0 0 0 0.819118-0.860074l0.286691-0.30717c0.839596-0.941986 1.638236-1.945405 2.375442-2.969303zM229.834297 551.532687c-27.583802-46.935466-51.358704-129.256834-51.358705-184.035357 0-82.034677 38.293771-162.390161 96.30781-220.424677 58.014039-58.014039 156.553945-106.9973 238.609099-106.997301 82.034677 0 172.014799 40.423478 230.049315 98.437517 58.014039 58.014039 98.437516 142.649415 98.437516 224.704569 0 54.799-8.805519 115.70043-36.389321 162.635897a2158.580942 2158.580942 0 0 0-17.119568 29.959244c-0.819118 1.59728-93.154205 175.49605-274.977942 434.419278-188.192381-257.10069-282.472873-436.323728-283.558204-438.69917-0.921508-2.027317 18.389201-27.071853 17.119568-28.771523l-17.119568 28.771523z" fill="#262626" p-id="4018"></path></svg>