<?xml version="1.0" standalone="no"?><!DOCTYPE svg PUBLIC "-//W3C//DTD SVG 1.1//EN" "http://www.w3.org/Graphics/SVG/1.1/DTD/svg11.dtd"><svg t="1502800609352" class="icon" style="" viewBox="0 0 1024 1024" version="1.1" xmlns="http://www.w3.org/2000/svg" p-id="1013" xmlns:xlink="http://www.w3.org/1999/xlink" width="16" height="16"><defs><style type="text/css"></style></defs><path d="M870.747 723.128h-508.365c-48.185 0-60.186-26.462-63.060-42.232l-4.972-27.867c-52.106-292.48-81.859-455.072-88.443-483.263-5.768-22.364-15.207-30.491-22.082-30.491h-100.484c-10.992 0-19.887-8.904-19.887-19.887s8.895-19.886 19.887-19.886h100.484c10.567 0 46.184 4.379 60.71 60.778 10.273 43.958 69.507 376.495 88.967 485.778l4.933 27.704c0.486 2.632 1.748 9.595 23.947 9.595h508.364c10.991 0 19.886 8.903 19.886 19.886 0 10.982-8.896 19.886-19.886 19.886z" p-id="1014" fill="#515151"></path><path d="M812.754 562.167h-513.724c-10.992 0-19.887-8.905-19.887-19.887s8.894-19.886 19.887-19.886h513.724c35.386 0 42.552-27.598 42.824-28.773 2.156-8.001 50.048-186.772 63.254-231.265 1.553-5.225 2.816-12.382 0.019-16.693-2.893-4.428-9.906-6.546-13.11-7.148h-669.868c-10.992 0-19.886-8.904-19.886-19.887s8.895-19.886 19.886-19.886h671.346c0.698 0 1.4 0.038 2.098 0.107 2.873 0.31 28.47 3.574 42.551 24.636 6.312 9.448 12.312 25.82 5.108 50.173-13.071 43.998-62.362 227.984-62.866 229.838-4.896 20.023-28.358 58.671-81.357 58.671zM403.437 943.011c-45.523 0-82.558-37.026-82.558-82.539s37.036-82.539 82.558-82.539c45.503 0 82.52 37.026 82.52 82.539s-37.017 82.539-82.52 82.539zM403.437 817.708c-23.596 0-42.785 19.188-42.785 42.764 0 23.577 19.188 42.766 42.785 42.766 23.577 0 42.745-19.189 42.745-42.766 0-23.576-19.168-42.764-42.745-42.764zM773.992 943.011c-45.504 0-82.539-37.026-82.539-82.539s37.035-82.539 82.539-82.539c45.502 0 82.539 37.026 82.539 82.539s-37.037 82.539-82.539 82.539zM773.992 817.708c-23.577 0-42.766 19.188-42.766 42.764 0 23.577 19.188 42.766 42.766 42.766 23.576 0 42.764-19.189 42.764-42.766 0-23.576-19.188-42.764-42.764-42.764z" p-id="1015" fill="#515151"></path></svg>