<?xml version="1.0" standalone="no"?><!DOCTYPE svg PUBLIC "-//W3C//DTD SVG 1.1//EN" "http://www.w3.org/Graphics/SVG/1.1/DTD/svg11.dtd"><svg t="1503397809706" class="icon" style="" viewBox="0 0 1024 1024" version="1.1" xmlns="http://www.w3.org/2000/svg" p-id="2378" xmlns:xlink="http://www.w3.org/1999/xlink" width="64" height="64"><defs><style type="text/css"></style></defs><path d="M506.589837 313.706677c-3.848146-20.813092-20.523447-36.453945-40.550358-36.453944s-36.702212 15.640853-40.550359 36.453944h-0.848247l0.331023 5.689464c-0.082756 1.179271-0.331023 2.213719-0.331023 3.392989 0 3.351611 0.413779 6.579089 1.034448 9.7445l15.537408 254.24661h49.6535l15.537408-254.24661c0.620669-3.144722 1.013759-6.392888 1.013759-9.7445 0-1.179271-0.227579-2.213719-0.310335-3.392989l0.310335-5.689464h-0.827559z m-40.550358-201.965612c-228.530235 0-413.77917 185.269623-413.77917 413.779169 0 228.550924 185.248934 413.77917 413.77917 413.77917s413.77917-185.228245 413.779169-413.77917c0-228.509546-185.248934-413.77917-413.779169-413.779169z m0 786.180422c-205.668936 0-372.401253-166.732316-372.401253-372.401253 0-205.627558 166.732316-372.401253 372.401253-372.401252s372.401253 166.773694 372.401252 372.401252c0 205.689625-166.711627 372.401253-372.401252 372.401253z m0-235.97826c-22.84061 0-41.398606 20.399313-41.398606 45.577775s18.537307 45.577776 41.398606 45.577776 41.377917-20.399313 41.377917-45.577776-18.516618-45.577776-41.377917-45.577775z" p-id="2379" fill="#d81e06"></path></svg>